<?xml version="1.0" encoding="UTF-8"?>
<svg width="89px" height="34px" viewBox="0 0 89 34" version="1.1" xmlns="http://www.w3.org/2000/svg" xmlns:xlink="http://www.w3.org/1999/xlink">
    <title>Logo/aon-logo-rgb-crop</title>
    <g id="Logo/aon-logo-rgb-crop" stroke="none" stroke-width="1" fill="none" fill-rule="evenodd">
        <g id="Aon_Logo_Red_RGB" fill="#EB0017" fill-rule="nonzero">
            <polygon id="Path" points="14.3369352 0 0 33 6.83497053 33 9.20137525 27.3259784 21.370334 27.3259784 18.8143418 21.5096646 11.6257367 21.5096646 17 8.61995956 27.1660118 33 34 33 19.6640472 0"></polygon>
            <polygon id="Path" points="82.8007459 4 82.8007459 21.2126501 69.4009168 4 64 4 64 33 70.1992541 33 70.1992541 15.112206 84.1283944 33 89 33 89 4"></polygon>
            <path d="M46.4990404,5 C38.502978,5 32,11.5042514 32,19.4995203 C32,27.4947891 38.502978,34 46.4990404,34 C54.4951029,34 61,27.4947891 61,19.4995203 C61,11.5042514 54.4951029,5 46.4990404,5 Z M46.4990404,27.8756989 C43.1108561,27.8756989 40.0562942,25.8349085 38.7596922,22.7049451 C37.4630902,19.5749816 38.1797917,15.9722378 40.5755998,13.5766675 C42.9714079,11.1810972 46.5745093,10.4644669 49.7047834,11.7609402 C52.8350576,13.0574136 54.8760506,16.1116722 54.8760506,19.4995203 C54.8707626,24.1233641 51.1233433,27.8704115 46.4990404,27.8756989 L46.4990404,27.8756989 Z" id="Shape"></path>
        </g>
    </g>
</svg>